# xmcd
#
# Track frame offsets: 
#        150
#        19352
#        40200
#        56472
#        76097
#        96952
#        120277
#        137600
#        160027
#        176305
#        193825
#
# Disc length: 2802 seconds
#
# Revision: 20
# Processed by: cddbd v1.5.2PL0 Copyright (c) Steve Scherf et al.
# Submitted via: ExactAudioCopy v0.99pb5
#
DISCID=810af00b
DTITLE=Midnight Oil - Diesel and Dust
DYEAR=1987
DGENRE=Rock
TTITLE0=Beds Are Burning
TTITLE1=Put Down That Weapon
TTITLE2=Dreamworld
TTITLE3=Arctic World
TTITLE4=Warakurna
TTITLE5=The Dead Heart
TTITLE6=Whoah
TTITLE7=Bullroarer
TTITLE8=Sell My Soul
TTITLE9=Sometimes
TTITLE10=Gunbarrel Highway
EXTD=MIDNIGHT OIL - DIESEL AND DUST\n\nCBS\nCBS 460005 2
EXTT0=
EXTT1=
EXTT2=
EXTT3=
EXTT4=
EXTT5=
EXTT6=
EXTT7=
EXTT8=
EXTT9=
EXTT10=
PLAYORDER=
